<svg id="linkedin-svgrepo-com" xmlns="http://www.w3.org/2000/svg" width="21.786" height="20" viewBox="0 0 21.786 20">
  <rect id="Rectangle_3" data-name="Rectangle 3" width="4.245" height="13.586" transform="translate(0.561 6.414)" fill="#94bed8"/>
  <path id="Path_3" data-name="Path 3" d="M-268.405,283.9A2.38,2.38,0,0,0-271,286.256a2.357,2.357,0,0,0,2.535,2.356h.034a2.368,2.368,0,0,0,2.586-2.356A2.369,2.369,0,0,0-268.405,283.9Z" transform="translate(271 -283.9)" fill="#94bed8"/>
  <path id="Path_4" data-name="Path 4" d="M-175.091,357.8c-2.433,0-3.956,1.327-4.237,2.263v-2.135H-184.1c.06,1.131,0,13.586,0,13.586h4.772v-7.342a3.211,3.211,0,0,1,.1-1.114,2.427,2.427,0,0,1,2.3-1.667c1.659,0,2.407,1.259,2.407,3.1v7.027h4.815v-7.554C-169.706,359.757-172.071,357.8-175.091,357.8Z" transform="translate(191.493 -351.513)" fill="#94bed8"/>
</svg>
