<svg xmlns="http://www.w3.org/2000/svg" width="28" height="18.667" viewBox="0 0 28 18.667">
  <path id="menu_icon" d="M121.556-701.333a1.505,1.505,0,0,1-1.108-.447,1.505,1.505,0,0,1-.447-1.108,1.5,1.5,0,0,1,.447-1.108,1.5,1.5,0,0,1,1.108-.447h24.889a1.5,1.5,0,0,1,1.108.447,1.5,1.5,0,0,1,.447,1.108,1.505,1.505,0,0,1-.447,1.108,1.505,1.505,0,0,1-1.108.447Zm0-7.778a1.505,1.505,0,0,1-1.108-.447,1.505,1.505,0,0,1-.447-1.108,1.505,1.505,0,0,1,.447-1.108,1.505,1.505,0,0,1,1.108-.447h24.889a1.505,1.505,0,0,1,1.108.447,1.505,1.505,0,0,1,.447,1.108,1.505,1.505,0,0,1-.447,1.108,1.505,1.505,0,0,1-1.108.447Zm0-7.778a1.5,1.5,0,0,1-1.108-.447,1.505,1.505,0,0,1-.447-1.108,1.505,1.505,0,0,1,.447-1.108,1.505,1.505,0,0,1,1.108-.447h24.889a1.505,1.505,0,0,1,1.108.447,1.505,1.505,0,0,1,.447,1.108,1.505,1.505,0,0,1-.447,1.108,1.5,1.5,0,0,1-1.108.447Z" transform="translate(-120 720)" fill="#94bed8"/>
</svg>
